<svg width="33" height="33" viewBox="0 0 33 33" fill="none" xmlns="http://www.w3.org/2000/svg">
<path fill-rule="evenodd" clip-rule="evenodd" d="M2.952 29.9519V7.88196C2.952 7.08528 3.42484 6.36458 4.15564 6.04735L17.7011 0.167576C19.0219 -0.405737 20.4975 0.562362 20.4975 2.00219V29.9519H22.0278V8.59841H27.6439C28.7485 8.59841 29.6439 9.49384 29.6439 10.5984V29.9519H31.3878C32.0757 29.9519 32.6334 30.5096 32.6334 31.1975C32.6334 31.8855 32.0757 32.4432 31.3878 32.4432H1.27931C0.591374 32.4432 0.0336914 31.8855 0.0336914 31.1975C0.0336914 30.5096 0.591375 29.9519 1.27931 29.9519H2.952ZM7.5786 10.7693C7.5786 10.0814 8.13628 9.52369 8.82422 9.52369H14.8744C15.5623 9.52369 16.12 10.0814 16.12 10.7693C16.12 11.4573 15.5623 12.0149 14.8744 12.0149H8.82422C8.13628 12.0149 7.5786 11.4573 7.5786 10.7693ZM8.82422 14.7909C8.13628 14.7909 7.5786 15.3486 7.5786 16.0365C7.5786 16.7244 8.13628 17.2821 8.82422 17.2821H14.8744C15.5623 17.2821 16.12 16.7244 16.12 16.0365C16.12 15.3486 15.5623 14.7909 14.8744 14.7909H8.82422ZM7.5786 21.3037C7.5786 20.6158 8.13628 20.0581 8.82422 20.0581H14.8744C15.5623 20.0581 16.12 20.6158 16.12 21.3037C16.12 21.9917 15.5623 22.5493 14.8744 22.5493H8.82422C8.13628 22.5493 7.5786 21.9917 7.5786 21.3037ZM8.82422 25.5388C8.13628 25.5388 7.5786 26.0965 7.5786 26.7844C7.5786 27.4724 8.13628 28.0301 8.82422 28.0301H14.8744C15.5623 28.0301 16.12 27.4724 16.12 26.7844C16.12 26.0965 15.5623 25.5388 14.8744 25.5388H8.82422Z" fill="#7D7D86"/>
</svg>
