<svg width="160" height="138" viewBox="0 0 160 138" fill="none" xmlns="http://www.w3.org/2000/svg">
<path d="M10.2441 74.159L92.6021 121.522C93.0612 121.786 93.6466 121.646 93.937 121.203L144.456 44.1401C144.716 43.7435 144.662 43.2187 144.326 42.8838L108.697 7.35329C108.455 7.11186 108.106 7.01085 107.773 7.08548L27.6128 25.0151C27.2791 25.0897 27.0067 25.3296 26.8906 25.6512L9.80212 72.9524C9.63731 73.4085 9.82363 73.9172 10.2441 74.159Z" fill="#D9FAFD" stroke="#11C4D4" stroke-width="2" stroke-linecap="round" stroke-linejoin="round"/>
<path d="M48.1993 65.0878L92.5551 118.123L106.222 52.1098L48.1993 65.0878Z" fill="#D9FAFD"/>
<path d="M13.3859 72.8746L48.1993 65.0878M142.969 43.8904L106.222 52.1098M48.7851 22.3092L48.1993 65.0878M48.1993 65.0878L92.5551 118.123L106.222 52.1098M48.1993 65.0878L106.222 52.1098M81.6644 14.955L106.222 52.1098" stroke="#11C4D4" stroke-width="2" stroke-linecap="round" stroke-linejoin="round"/>
<path d="M10.2441 74.159L92.6021 121.522C93.0612 121.786 93.6466 121.646 93.937 121.203L144.456 44.1401C144.716 43.7435 144.662 43.2187 144.326 42.8838L108.697 7.35329C108.455 7.11186 108.106 7.01085 107.773 7.08548L27.6128 25.0151C27.2791 25.0897 27.0067 25.3296 26.8906 25.6512L9.80212 72.9524C9.63731 73.4085 9.82363 73.9172 10.2441 74.159Z" fill="#D9FAFD" stroke="#11C4D4" stroke-width="2" stroke-linecap="round" stroke-linejoin="round"/>
<path d="M48.2 65.0906L92.5558 118.125L106.222 52.1126L48.2 65.0906Z" fill="#D9FAFD"/>
<path fill-rule="evenodd" clip-rule="evenodd" d="M81.1136 14.1235C81.5744 13.819 82.1947 13.9456 82.4993 14.4063L106.676 50.9862L142.751 42.9173C143.29 42.7967 143.825 43.1359 143.946 43.6749C144.066 44.2138 143.727 44.7485 143.188 44.869L107.071 52.9475L93.535 118.328C93.4572 118.704 93.1715 119.002 92.7995 119.095C92.4275 119.189 92.0348 119.061 91.7887 118.767L47.8237 66.1994L13.6048 73.8533C13.0658 73.9738 12.5312 73.6346 12.4106 73.0957C12.2901 72.5567 12.6293 72.022 13.1682 71.9015L47.2108 64.2871L47.7858 22.2982C47.7933 21.746 48.2471 21.3045 48.7994 21.312C49.3516 21.3196 49.7931 21.7734 49.7856 22.3256L49.2171 63.8383L104.588 51.4534L80.8308 15.5091C80.5262 15.0484 80.6529 14.428 81.1136 14.1235ZM104.929 53.4265L50.0201 65.7082L91.9958 115.897L104.929 53.4265Z" fill="#11C4D4"/>
</svg>
