<svg width="128" height="121" viewBox="0 0 128 121" fill="none" xmlns="http://www.w3.org/2000/svg">
<path d="M24.5192 29.0868L44.5217 94.9268C44.6756 95.4335 45.198 95.7324 45.7129 95.6082L110.586 79.9684C111.047 79.8572 111.367 79.4375 111.351 78.9634L110.159 42.6524C110.148 42.3107 109.963 41.9984 109.669 41.8244L58.3521 11.4873C58.0578 11.3133 57.695 11.3017 57.3902 11.4566L25.023 27.9046C24.5906 28.1243 24.3782 28.6227 24.5192 29.0868Z" fill="#D9FAFD" stroke="#11C4D4" stroke-width="2" stroke-linecap="round" stroke-linejoin="round"/>
<path d="M49.1628 42.9964L46.268 93.3403L86.4926 65.0648L49.1628 42.9964Z" fill="#D9FAFD"/>
<path d="M26.765 29.7553L49.1628 42.9964M110.135 79.0415L86.4926 65.0648M70.8324 20.5436L49.1628 42.9964M49.1628 42.9964L46.268 93.3403L86.4926 65.0648M49.1628 42.9964L86.4926 65.0648M91.9859 33.0491L86.4926 65.0648" stroke="#11C4D4" stroke-width="2" stroke-linecap="round" stroke-linejoin="round"/>
<path d="M24.5192 29.0868L44.5217 94.9268C44.6756 95.4335 45.198 95.7324 45.7129 95.6082L110.586 79.9684C111.047 79.8572 111.367 79.4375 111.351 78.9634L110.159 42.6524C110.148 42.3107 109.963 41.9984 109.669 41.8244L58.3521 11.4873C58.0578 11.3133 57.695 11.3017 57.3902 11.4566L25.023 27.9046C24.5906 28.1243 24.3782 28.6227 24.5192 29.0868Z" fill="#D9FAFD" stroke="#11C4D4" stroke-width="2" stroke-linecap="round" stroke-linejoin="round"/>
<path d="M49.1616 42.9981L46.2668 93.342L86.4914 65.0666L49.1616 42.9981Z" fill="#D9FAFD"/>
<path fill-rule="evenodd" clip-rule="evenodd" d="M92.1538 32.0652C92.6981 32.1586 93.0636 32.6756 92.9702 33.2199L87.5935 64.5565L110.642 78.1824C111.118 78.4635 111.275 79.0767 110.994 79.5522C110.713 80.0276 110.1 80.1851 109.625 79.9041L86.5382 66.256L46.8418 94.1601C46.528 94.3807 46.1157 94.4024 45.7805 94.2159C45.4453 94.0294 45.2464 93.6676 45.2684 93.2846L48.1283 43.5489L26.2548 30.6179C25.7794 30.3368 25.6219 29.7236 25.9029 29.2482C26.184 28.7727 26.7972 28.6152 27.2726 28.8962L48.9906 41.7353L70.1116 19.8509C70.4951 19.4535 71.1282 19.4423 71.5256 19.8258C71.923 20.2094 71.9342 20.8424 71.5507 21.2398L50.7603 42.7816L85.7511 63.4673L90.9991 32.8817C91.0924 32.3374 91.6094 31.9718 92.1538 32.0652ZM84.6491 65.1392L50.0657 44.6943L47.3838 91.3344L84.6491 65.1392Z" fill="#11C4D4"/>
</svg>
