<svg width="30" height="31" viewBox="0 0 30 31" fill="none" xmlns="http://www.w3.org/2000/svg">
<ellipse cx="15" cy="15.0907" rx="15" ry="15.0698" fill="#11C4D4"/>
<ellipse cx="14.9999" cy="15.0907" rx="11.4706" ry="11.5239" fill="white"/>
<path fill-rule="evenodd" clip-rule="evenodd" d="M23.7949 24.4593C26.2228 22.1608 27.7384 18.9005 27.7384 15.2845C27.7384 8.32338 22.1214 2.68024 15.1924 2.68024C8.2635 2.68024 2.64648 8.32338 2.64648 15.2845C2.64648 18.9005 4.1621 22.1608 6.58994 24.4593C8.83597 26.5857 11.8627 27.8889 15.1924 27.8889C18.5222 27.8889 21.5489 26.5857 23.7949 24.4593ZM7.65859 22.7984C9.42724 20.582 12.1449 19.1628 15.1924 19.1628C18.24 19.1628 20.9576 20.582 22.7263 22.7984C20.8031 24.7446 18.1378 25.9497 15.1924 25.9497C12.247 25.9497 9.58179 24.7446 7.65859 22.7984ZM20.0178 11.4063C20.0178 14.0837 17.8574 16.2541 15.1924 16.2541C12.5275 16.2541 10.3671 14.0837 10.3671 11.4063C10.3671 8.72893 12.5275 6.55849 15.1924 6.55849C17.8574 6.55849 20.0178 8.72893 20.0178 11.4063Z" fill="#0C4E8C"/>
</svg>
