
<svg width="1920" height="191" viewBox="0 0 1920 191" fill="none" xmlns="http://www.w3.org/2000/svg">
<path d="M1576.52 29.0868L1596.52 94.9268C1596.68 95.4335 1597.2 95.7324 1597.71 95.6082L1662.59 79.9684C1663.05 79.8572 1663.37 79.4375 1663.35 78.9634L1662.16 42.6524C1662.15 42.3107 1661.96 41.9984 1661.67 41.8244L1610.35 11.4873C1610.06 11.3133 1609.69 11.3017 1609.39 11.4566L1577.02 27.9046C1576.59 28.1243 1576.38 28.6227 1576.52 29.0868Z" fill="#D9FAFD" stroke="#11C4D4" stroke-width="2" stroke-linecap="round" stroke-linejoin="round"/>
<path d="M1601.16 42.9964L1598.27 93.3403L1638.49 65.0648L1601.16 42.9964Z" fill="#D9FAFD"/>
<path d="M1578.76 29.7553L1601.16 42.9964M1662.13 79.0415L1638.49 65.0648M1622.83 20.5436L1601.16 42.9964M1601.16 42.9964L1598.27 93.3403L1638.49 65.0648M1601.16 42.9964L1638.49 65.0648M1643.99 33.0491L1638.49 65.0648" stroke="#11C4D4" stroke-width="2" stroke-linecap="round" stroke-linejoin="round"/>
<path d="M1576.52 29.0868L1596.52 94.9268C1596.68 95.4335 1597.2 95.7324 1597.71 95.6082L1662.59 79.9684C1663.05 79.8572 1663.37 79.4375 1663.35 78.9634L1662.16 42.6524C1662.15 42.3107 1661.96 41.9984 1661.67 41.8244L1610.35 11.4873C1610.06 11.3133 1609.69 11.3017 1609.39 11.4566L1577.02 27.9046C1576.59 28.1243 1576.38 28.6227 1576.52 29.0868Z" fill="#D9FAFD" stroke="#11C4D4" stroke-width="2" stroke-linecap="round" stroke-linejoin="round"/>
<path d="M1601.16 42.9981L1598.27 93.342L1638.49 65.0666L1601.16 42.9981Z" fill="#D9FAFD"/>
<path fill-rule="evenodd" clip-rule="evenodd" d="M1644.15 32.0652C1644.7 32.1586 1645.06 32.6756 1644.97 33.2199L1639.59 64.5565L1662.64 78.1824C1663.12 78.4635 1663.28 79.0767 1662.99 79.5522C1662.71 80.0276 1662.1 80.1851 1661.62 79.9041L1638.54 66.256L1598.84 94.1601C1598.53 94.3807 1598.12 94.4024 1597.78 94.2159C1597.45 94.0294 1597.25 93.6676 1597.27 93.2846L1600.13 43.5489L1578.25 30.6179C1577.78 30.3368 1577.62 29.7236 1577.9 29.2482C1578.18 28.7727 1578.8 28.6152 1579.27 28.8962L1600.99 41.7353L1622.11 19.8509C1622.5 19.4535 1623.13 19.4423 1623.53 19.8258C1623.92 20.2094 1623.93 20.8424 1623.55 21.2398L1602.76 42.7816L1637.75 63.4673L1643 32.8817C1643.09 32.3374 1643.61 31.9718 1644.15 32.0652ZM1636.65 65.1392L1602.07 44.6943L1599.38 91.3344L1636.65 65.1392Z" fill="#11C4D4"/>
<path d="M272.34 103.058C135.003 89.0814 33.5562 130.845 0 153.473V190.909H1920V70.1128C1920 137.998 1569.36 75.1044 1262.98 70.1128C956.596 65.1211 838.906 153.473 657.021 170.943C475.137 188.414 444.012 120.529 272.34 103.058Z" fill="#0C4E8C"/>
<path d="M250.244 106.159L332.602 153.522C333.061 153.786 333.647 153.646 333.937 153.203L384.456 76.1401C384.716 75.7435 384.662 75.2187 384.326 74.8838L348.697 39.3533C348.455 39.1119 348.106 39.0109 347.773 39.0855L267.613 57.0151C267.279 57.0897 267.007 57.3296 266.891 57.6512L249.802 104.952C249.637 105.409 249.824 105.917 250.244 106.159Z" fill="#D9FAFD" stroke="#11C4D4" stroke-width="2" stroke-linecap="round" stroke-linejoin="round"/>
<path d="M288.199 97.0878L332.555 150.123L346.222 84.1098L288.199 97.0878Z" fill="#D9FAFD"/>
<path d="M253.386 104.875L288.199 97.0878M382.969 75.8904L346.222 84.1098M288.785 54.3092L288.199 97.0878M288.199 97.0878L332.555 150.123L346.222 84.1098M288.199 97.0878L346.222 84.1098M321.664 46.955L346.222 84.1098" stroke="#11C4D4" stroke-width="2" stroke-linecap="round" stroke-linejoin="round"/>
<path d="M250.244 106.159L332.602 153.522C333.061 153.786 333.647 153.646 333.937 153.203L384.456 76.1401C384.716 75.7435 384.662 75.2187 384.326 74.8838L348.697 39.3533C348.455 39.1119 348.106 39.0109 347.773 39.0855L267.613 57.0151C267.279 57.0897 267.007 57.3296 266.891 57.6512L249.802 104.952C249.637 105.409 249.824 105.917 250.244 106.159Z" fill="#D9FAFD" stroke="#11C4D4" stroke-width="2" stroke-linecap="round" stroke-linejoin="round"/>
<path d="M288.2 97.0906L332.556 150.125L346.222 84.1126L288.2 97.0906Z" fill="#D9FAFD"/>
<path fill-rule="evenodd" clip-rule="evenodd" d="M321.114 46.1235C321.574 45.819 322.195 45.9456 322.499 46.4063L346.676 82.9862L382.751 74.9173C383.29 74.7967 383.825 75.1359 383.946 75.6749C384.066 76.2138 383.727 76.7485 383.188 76.869L347.071 84.9475L333.535 150.328C333.457 150.704 333.171 151.002 332.799 151.095C332.427 151.189 332.035 151.061 331.789 150.767L287.824 98.1994L253.605 105.853C253.066 105.974 252.531 105.635 252.411 105.096C252.29 104.557 252.629 104.022 253.168 103.901L287.211 96.2871L287.786 54.2982C287.793 53.746 288.247 53.3045 288.799 53.312C289.352 53.3196 289.793 53.7734 289.786 54.3256L289.217 95.8383L344.588 83.4534L320.831 47.5091C320.526 47.0484 320.653 46.428 321.114 46.1235ZM344.929 85.4265L290.02 97.7082L331.996 147.897L344.929 85.4265Z" fill="#11C4D4"/>
</svg>
