<svg width="167" height="34" viewBox="0 0 167 34" fill="none" xmlns="http://www.w3.org/2000/svg">
<path d="M10.1383 24.7884C7.0217 24.7884 4.55284 23.737 2.7317 21.6343C0.910568 19.5315 0 16.6215 0 12.9135C0 9.20549 0.910568 6.29543 2.7317 4.1739C4.55284 2.05237 7.0217 0.991608 10.1383 0.991608C14.8225 0.991608 17.8359 3.08498 19.1689 7.26232L14.2311 8.91448C13.4895 6.96193 12.1847 5.97626 10.3166 5.97626C8.74896 5.97626 7.50984 6.59582 6.62743 7.84433C5.73564 9.09284 5.29444 10.7826 5.29444 12.9135C5.29444 15.0162 5.73564 16.6872 6.60866 17.9169C7.48167 19.1466 8.66447 19.7662 10.1477 19.7662C12.2504 19.7662 13.6304 18.6679 14.2875 16.4713L19.2721 17.9826C17.9485 22.5261 14.9164 24.7884 10.1383 24.7884Z" fill="#0C4E8C"/>
<path d="M60.8484 24.7883C58.6518 24.7883 56.9339 23.9998 55.6854 22.4321V30.7962L50.4849 33.1993V1.52656H55.6854V3.26321C56.9339 1.75186 58.6612 0.991486 60.886 0.991486C63.7585 0.991486 66.0396 2.03348 67.7106 4.12684C69.3815 6.22021 70.2263 9.14905 70.2263 12.9134C70.2263 16.5932 69.3627 19.4938 67.6448 21.606C65.927 23.7275 63.6646 24.7883 60.8484 24.7883ZM60.0881 19.813C61.6557 19.813 62.8761 19.2216 63.7397 18.0294C64.6034 16.8466 65.0258 15.1381 65.0258 12.9134C65.0258 10.8106 64.594 9.12088 63.7397 7.84421C62.8761 6.56754 61.6651 5.9292 60.0881 5.9292C58.1637 5.9292 56.6899 6.6708 55.6854 8.15399V17.5882C56.7274 19.0714 58.1918 19.813 60.0881 19.813Z" fill="#0C4E8C"/>
<path d="M83.8378 24.7883C81.9979 24.7883 80.2706 24.4316 78.656 23.7181C77.0414 23.0047 75.8117 22.0566 74.9856 20.8738L78.5434 17.8511C80.1486 19.4563 81.904 20.2542 83.8378 20.2542C86.2973 20.2542 87.527 19.5126 87.527 18.0294C87.527 17.5225 87.3111 17.0625 86.8793 16.6495C86.4475 16.2365 85.9875 15.9173 85.4994 15.692C85.0112 15.4667 84.2133 15.1381 83.115 14.6876C80.5053 13.8239 78.5997 12.8383 77.3981 11.7306C76.1966 10.6229 75.5958 9.13966 75.5958 7.30914C75.5958 5.31903 76.3561 3.77013 77.8863 2.66242C79.4164 1.55472 81.3502 0.991486 83.6876 0.991486C87.1234 0.991486 89.8363 2.1649 91.8264 4.50233L88.2217 7.44056C86.8887 6.16389 85.3773 5.52555 83.6876 5.52555C81.6412 5.52555 80.618 6.14511 80.618 7.39362C80.618 8.01318 80.9935 8.54826 81.7538 8.99885C82.5142 9.44005 83.6125 9.90003 85.0675 10.3788C87.527 11.2049 89.3857 12.1905 90.653 13.317C91.9109 14.4435 92.5398 16.0205 92.5398 18.0294C92.5398 20.1979 91.7513 21.8594 90.1836 23.0329C88.6253 24.2063 86.5132 24.7883 83.8378 24.7883Z" fill="#0C4E8C"/>
<path d="M108.264 24.7883C105.035 24.7883 102.472 23.7275 100.594 21.606C98.7075 19.4845 97.7688 16.5744 97.7688 12.8664C97.7688 9.18659 98.7169 6.29531 100.613 4.17378C102.509 2.05225 105.063 0.991486 108.264 0.991486C111.174 0.991486 113.549 1.89267 115.398 3.70441C117.247 5.51616 118.177 8.16338 118.177 11.6648C118.177 12.8852 118.12 13.946 117.998 14.8659H102.922C103.007 16.4711 103.57 17.7572 104.593 18.7335C105.617 19.7098 106.837 20.1979 108.264 20.1979C110.282 20.1979 111.878 19.4094 113.07 17.8417L116.365 21.2211C114.366 23.6055 111.671 24.7883 108.264 24.7883ZM102.969 10.5571H113.023C112.901 8.92375 112.404 7.68463 111.512 6.83977C110.62 5.99491 109.54 5.57249 108.264 5.57249C106.781 5.57249 105.56 5.97614 104.593 6.79283C103.626 7.61892 103.082 8.86743 102.969 10.5571Z" fill="#0C4E8C"/>
<path d="M138.462 24.2532V11.2236C138.462 7.69402 137.054 5.9292 134.238 5.9292C131.15 5.9292 129.61 7.66585 129.61 11.1298V24.2532H124.41V1.52656H129.61V3.65748C131.093 1.87389 133.093 0.991486 135.618 0.991486C137.993 0.991486 139.927 1.73308 141.419 3.21627C142.912 4.69947 143.663 7.05568 143.663 10.2849V24.2532H138.462Z" fill="#0C4E8C"/>
<path d="M158.298 24.7883C156.458 24.7883 154.731 24.4316 153.116 23.7181C151.502 23.0047 150.272 22.0566 149.446 20.8738L153.004 17.8511C154.609 19.4563 156.364 20.2542 158.298 20.2542C160.757 20.2542 161.987 19.5126 161.987 18.0294C161.987 17.5225 161.771 17.0625 161.34 16.6495C160.908 16.2365 160.448 15.9173 159.96 15.692C159.471 15.4667 158.674 15.1381 157.575 14.6876C154.966 13.8239 153.06 12.8383 151.858 11.7306C150.657 10.6229 150.056 9.13966 150.056 7.30914C150.056 5.31903 150.816 3.77013 152.346 2.66242C153.877 1.55472 155.81 0.991486 158.148 0.991486C161.584 0.991486 164.297 2.1649 166.287 4.50233L162.682 7.44056C161.349 6.16389 159.838 5.52555 158.148 5.52555C156.101 5.52555 155.078 6.14511 155.078 7.39362C155.078 8.01318 155.454 8.54826 156.214 8.99885C156.974 9.44005 158.073 9.90003 159.528 10.3788C161.987 11.2049 163.846 12.1905 165.113 13.317C166.371 14.4435 167 16.0205 167 18.0294C167 20.1979 166.212 21.8594 164.644 23.0329C163.086 24.2063 160.964 24.7883 158.298 24.7883Z" fill="#0C4E8C"/>
<path d="M33.8504 5.5725C35.3618 5.5725 36.4789 5.90106 37.2111 6.54878C37.4364 6.74592 37.6241 6.98999 37.7743 7.26222L42.7308 5.47863C42.6839 5.33782 42.6275 5.2064 42.5712 5.07498C42.0361 3.86402 41.2851 2.97222 40.3276 2.40899C39.3608 1.84575 38.4314 1.47026 37.5208 1.27312C36.6197 1.07599 35.5683 0.982117 34.3855 0.982117C30.9122 0.982117 27.9552 1.8082 25.4863 3.46975L27.0916 7.69403C29.1286 6.28594 31.3816 5.5725 33.8504 5.5725Z" fill="#11C4D4"/>
<path d="M38.2907 10.9139C36.8638 10.116 35.0708 9.7123 32.9117 9.7123C30.4523 9.7123 28.3495 10.3506 26.6223 11.6273C24.8856 12.904 24.022 14.7721 24.022 17.2315C24.022 19.6347 24.7823 21.4934 26.3125 22.817C27.8426 24.1406 29.8233 24.7977 32.2546 24.7977C34.7704 24.7977 36.7887 24.0092 38.3 22.4415V24.2626H43.3692V9.62782C43.3692 9.44946 43.3692 9.2711 43.3598 9.09274L38.2907 10.9139ZM38.2907 18.0294C36.892 19.4845 35.2022 20.2073 33.2215 20.2073C31.8885 20.2073 30.8653 19.9445 30.1519 19.4094C29.4384 18.8743 29.0817 18.1515 29.0817 17.2315C29.0817 16.1895 29.5135 15.4198 30.3678 14.9223C31.2314 14.4153 32.3579 14.1619 33.7472 14.1619C35.4651 14.1619 36.9764 14.4717 38.2813 15.1006V18.0294H38.2907Z" fill="#0C4E8C"/>
</svg>
